<svg width="28" height="28" fill="none" xmlns="http://www.w3.org/2000/svg"><g clip-path="url(#clip0_206_253)" fill="#4DACB8"><path d="M6.187.867C1.83 3.19 2.71 8.773 3.552 10.881c0 0 .656 3.107 1.041 6.709.405 3.792 1.1 5.906 4.165 5.816 2.673-.078 4.202-1.612 3.754-6.306-.21-2.213-.105-5.164.422-9.486.527-4.323-1.11-9.752-6.747-6.747zm5.144 11.987a.59.59 0 01-.615-.563c-.105-2.385-.653-4.147-1.277-5.452C8.871 5.655 8.247 4.856 7.8 4.3l-.01-.001-.143.252c-.222.4-.48.891-.726 1.485-.492 1.188-.94 2.781-.94 4.84 0 .618.04 1.278.133 1.982a.59.59 0 01-1.17.155 16.427 16.427 0 01-.143-2.138C4.797 7.53 5.911 5.242 6.616 3.98c.232-.417.421-.735.482-.875.009-.02.026-.034.037-.053l-.065-.985a.589.589 0 111.176-.077l.07 1.061c.052.077.144.194.264.342.128.157.284.35.458.575.347.45.762 1.036 1.165 1.778.808 1.482 1.565 3.59 1.691 6.494a.59.59 0 01-.563.615zm10.823-7.231c-5.455-3.323-7.4 2.003-7.121 6.349.278 4.345.215 7.298-.122 9.495-.716 4.66.723 6.279 3.386 6.51 3.055.265 3.87-1.805 4.492-5.568.59-3.574 1.423-6.638 1.423-6.638.962-2.056 2.159-7.58-2.058-10.148zm.735 12.197a.59.59 0 11-1.158-.221c.191-1.003.27-1.921.27-2.758-.002-2.72-.82-4.587-1.364-5.704l-.089-.18h-.01c-.102.113-.21.233-.327.368-.346.4-.751.908-1.155 1.559-.806 1.3-1.612 3.17-1.889 5.884a.59.59 0 11-1.172-.119c.255-2.53.958-4.425 1.727-5.82.767-1.393 1.607-2.294 2.087-2.823a6.3 6.3 0 00.284-.325l.13-1.056a.589.589 0 111.17.144l-.122.98c.01.02.027.033.035.054.048.134.201.431.39.818.19.39.42.883.64 1.476.441 1.186.844 2.77.844 4.744 0 .91-.086 1.904-.291 2.979z"/></g><defs><clipPath id="clip0_206_253"><path fill="#fff" d="M0 0h28v28H0z"/></clipPath></defs></svg>