<svg width="24" height="24" fill="none" xmlns="http://www.w3.org/2000/svg"><path d="M17.496 0H6.503a3.181 3.181 0 00-3.18 3.18v11.473a3.18 3.18 0 003.18 3.18h4.426v3.462a3.501 3.501 0 00-2.145 1.971.53.53 0 00.488.734h5.431a.528.528 0 00.482-.732 3.422 3.422 0 00-2.15-1.972v-3.462h4.462a3.181 3.181 0 003.181-3.18V3.181A3.182 3.182 0 0017.496 0zm1.852 14.174a2.3 2.3 0 01-2.293 2.294H6.915a2.306 2.306 0 01-2.3-2.294V3.64c0-1.261 1.038-2.275 2.3-2.275h10.14a2.283 2.283 0 012.293 2.275v10.533z" fill="#4DACB8"/><path d="M17.056 2.4H6.915c-.683 0-1.229.56-1.229 1.242v10.532a1.22 1.22 0 001.229 1.223h10.14c.682 0 1.222-.542 1.222-1.223V3.642A1.23 1.23 0 0017.056 2.4zm-2.578 6.67c-.657.618-1.637.895-2.772.895-.252 0-.481-.013-.665-.038v3.033H9.157V4.586c.591-.1 1.424-.176 2.598-.176 1.186 0 2.03.227 2.597.68.544.428.909 1.134.909 1.966 0 .831-.279 1.536-.783 2.015z" fill="#4DACB8"/><path d="M11.844 5.858c-.39 0-.656.038-.804.076V8.44c.185.038.375.05.653.05 1.023 0 1.653-.517 1.653-1.385 0-.782-.543-1.248-1.502-1.248z" fill="#4DACB8"/></svg>