<svg width="24" height="24" fill="none" xmlns="http://www.w3.org/2000/svg"><g clip-path="url(#clip0_206_641)"><path fill-rule="evenodd" clip-rule="evenodd" d="M16.5 0A4.5 4.5 0 0121 4.5v15a4.5 4.5 0 01-4.5 4.5h-9A4.5 4.5 0 013 19.5v-15A4.5 4.5 0 017.5 0h9zm-9 15a.75.75 0 00-.75.75v1.5a.75.75 0 101.5 0v-1.5A.75.75 0 007.5 15zm11.25-3.75H5.25a.75.75 0 000 1.5h13.5a.75.75 0 100-1.5zM7.5 6a.75.75 0 00-.75.75v1.5a.75.75 0 101.5 0v-1.5A.75.75 0 007.5 6z" fill="#4DACB8"/></g><defs><clipPath id="clip0_206_641"><path fill="#fff" d="M0 0h24v24H0z"/></clipPath></defs></svg>