<svg width="24" height="24" fill="none" xmlns="http://www.w3.org/2000/svg"><path d="M8.665 0a6.543 6.543 0 00-6.536 6.536V24h2.424V6.536a4.116 4.116 0 014.112-4.112c1.649 0 3.073.976 3.728 2.38a7.127 7.127 0 012.541-.117C14.134 1.981 11.627 0 8.665 0z" fill="#4DACB8"/><path d="M13.99 6.079a5.685 5.685 0 00-5.68 5.679v.727h11.358v-.727a5.685 5.685 0 00-5.679-5.68zm-5.832 7.298l-.118.562-1.934 9.184 1.424.3 1.997-9.484.055-.262-1.424-.3zm2.582.563l-.033-.004v.003L9.68 23.681l1.446.153 1.026-9.746-1.412-.149zm3.976.314h-1.454V24h1.454v-9.746zm2.556-.314v-.004l-.034.003-1.413.15 1.026 9.745 1.447-.152-1.026-9.743zm2.665 0l-.118-.563-1.424.3.056.262 1.996 9.483 1.424-.3-1.934-9.183z" fill="#4DACB8"/></svg>