<svg width="26" height="26" fill="none" xmlns="http://www.w3.org/2000/svg"><path d="M20.587 8.671a2.169 2.169 0 100-4.338 2.169 2.169 0 000 4.338zm-.139 5.649c-.614.491-1.06.847-2.035.847-.974 0-1.395-.337-2.032-.846-.737-.589-1.652-1.321-3.388-1.321-1.734 0-2.648.732-3.384 1.32-.637.51-1.056.847-2.031.847-.973 0-1.393-.337-2.03-.845C4.814 13.732 3.9 13 2.168 13v2.167c.971 0 1.392.337 2.027.845.736.589 1.65 1.321 3.384 1.321 1.733 0 2.65-.732 3.385-1.321.636-.51 1.058-.845 2.03-.845.975 0 1.42.355 2.035.846.735.588 1.65 1.32 3.385 1.32 1.736 0 2.651-.732 3.388-1.32.637-.51 1.058-.846 2.032-.846V13c-1.734 0-2.65.732-3.385 1.32zm-2.035 6.263c-.974 0-1.395-.336-2.032-.846-.737-.588-1.652-1.32-3.388-1.32-1.734 0-2.648.732-3.384 1.32-.637.51-1.056.846-2.031.846-.973 0-1.393-.336-2.03-.845-.735-.589-1.648-1.321-3.381-1.321v2.166c.971 0 1.392.337 2.027.845.736.59 1.65 1.322 3.384 1.322 1.733 0 2.65-.732 3.385-1.322.636-.509 1.058-.845 2.03-.845.975 0 1.42.356 2.035.847.735.588 1.65 1.32 3.385 1.32 1.736 0 2.651-.732 3.388-1.32.637-.51 1.058-.847 2.032-.847v-2.166c-1.734 0-2.65.732-3.385 1.32-.614.491-1.06.846-2.035.846zM11.916 5.871l2.28 2.279-2.229 2.784c.31-.06.646-.1 1.026-.1 1.736 0 2.651.732 3.388 1.32.637.51 1.058.846 2.032.846.975 0 1.42-.355 2.035-.846.143-.114.297-.235.458-.353l-2.27-2.264.005-.006-5.959-5.958a1.082 1.082 0 00-1.531 0L6.817 7.906 8.35 9.438l3.567-3.567z" fill="#4DACB8"/></svg>