<svg width="24" height="24" fill="none" xmlns="http://www.w3.org/2000/svg"><path d="M12 20.253a5.932 5.932 0 01-1.863-.305V24h3.726v-4.052a5.932 5.932 0 01-1.863.305zm7.677-10.951c.17-.457.267-.948.267-1.464a4.213 4.213 0 00-3.207-4.088A4.87 4.87 0 0012 0a4.87 4.87 0 00-4.738 3.75 4.214 4.214 0 00-3.206 4.088 4.2 4.2 0 00.266 1.464 4.859 4.859 0 00-1.992 3.924 4.871 4.871 0 006.791 4.478 4.437 4.437 0 002.133.993v-2.342l-3.376-3.378a.744.744 0 111.053-1.053l2.323 2.322v-2.558L8.938 9.372a.554.554 0 01.783-.783l1.533 1.533V7.313a.745.745 0 011.491 0v2.81l1.534-1.534a.553.553 0 11.782.783l-2.316 2.316v2.558l2.324-2.322a.744.744 0 111.053 1.053l-3.377 3.378v2.342a4.443 4.443 0 002.133-.992 4.872 4.872 0 006.792-4.479 4.858 4.858 0 00-1.993-3.924z" fill="#4DACB8"/></svg>