<svg width="23" height="22" fill="none" xmlns="http://www.w3.org/2000/svg"><path d="M21.337 2.225a2.006 2.006 0 00-.953-.411 2.046 2.046 0 00-1.039.114L2.171 8.561a1.94 1.94 0 00-.896.71 1.813 1.813 0 00-.316 1.073c.01.38.142.747.377 1.054.234.306.56.538.935.663l3.474 1.155 1.937 6.125a.89.89 0 00.113.232c.008.01.018.019.026.03a.928.928 0 00.27.243c.09.058.191.1.297.125H8.4l.006.003a.974.974 0 00.194.019l.018-.003a.99.99 0 00.288-.048c.022-.007.04-.019.061-.027a.963.963 0 00.196-.105l.146-.118 2.59-2.735 3.862 2.862c.34.254.759.391 1.19.392.451-.001.889-.15 1.239-.423.35-.272.592-.651.685-1.074L22 4.032c.071-.33.047-.673-.07-.991a1.862 1.862 0 00-.594-.816zM8.98 13.508a.9.9 0 00-.261.464l-.297 1.379-.751-2.377 3.895-1.94-2.586 2.474zm7.956 4.862l-4.565-3.382a.99.99 0 00-1.297.11l-.83.875.294-1.363 6.788-6.492a.888.888 0 00.096-1.19.962.962 0 00-.556-.352.997.997 0 00-.66.08l-9.742 4.852-3.57-1.25 17.23-6.592-3.188 14.704z" fill="#fff"/></svg>