<svg width="20" height="20" fill="none" xmlns="http://www.w3.org/2000/svg"><path d="M5.679.74a.74.74 0 00-1.481 0V2.3c-1.422.114-2.355.394-3.04 1.08C.47 4.064.191 4.997.077 6.42h19.597c-.114-1.422-.393-2.355-1.08-3.04-.685-.686-1.618-.966-3.04-1.08V.74a.74.74 0 00-1.48 0v1.495c-.658-.013-1.394-.013-2.223-.013h-3.95c-.83 0-1.566 0-2.223.013V.741z" fill="#4DACB8"/><path fill-rule="evenodd" clip-rule="evenodd" d="M0 10.123c0-.828 0-1.565.013-2.222H19.74c.013.657.013 1.394.013 2.223v1.975c0 3.724 0 5.587-1.157 6.744S15.576 20 11.852 20h-3.95c-3.725 0-5.588 0-6.745-1.157S0 15.823 0 12.099v-1.976zM14.815 12.1a.988.988 0 100-1.976.988.988 0 000 1.976zm0 3.95a.988.988 0 100-1.975.988.988 0 000 1.975zm-3.95-4.938a.988.988 0 11-1.976 0 .988.988 0 011.975 0zm0 3.95a.988.988 0 11-1.976 0 .988.988 0 011.975 0zM4.937 12.1a.988.988 0 100-1.976.988.988 0 000 1.976zm0 3.95a.988.988 0 100-1.975.988.988 0 000 1.975z" fill="#4DACB8"/></svg>