<svg width="21" height="21" fill="none" xmlns="http://www.w3.org/2000/svg"><path clip-rule="evenodd" d="M14.571 1H6.43A5.429 5.429 0 001 6.429v8.142A5.429 5.429 0 006.429 20h8.142A5.429 5.429 0 0020 14.571V6.43A5.429 5.429 0 0014.571 1z" stroke="#fff" stroke-width="2" stroke-linecap="round" stroke-linejoin="round"/><path clip-rule="evenodd" d="M10.5 14.571a4.071 4.071 0 110-8.142 4.071 4.071 0 010 8.142z" stroke="#fff" stroke-width="2" stroke-linecap="round" stroke-linejoin="round"/><path d="M15.929 3.714a1.357 1.357 0 100 2.715 1.357 1.357 0 000-2.715z" fill="#fff"/><path d="M15.929 4.393a.679.679 0 100 1.357.679.679 0 000-1.357z" stroke="#fff" stroke-width="2" stroke-linecap="round"/></svg>