<svg width="26" height="26" fill="none" xmlns="http://www.w3.org/2000/svg"><path d="M17.936 13.982l-.494.49s-1.172 1.166-4.374-2.017c-3.2-3.183-2.028-4.349-2.028-4.349l.31-.309c.766-.76.838-1.983.17-2.875l-1.366-1.825c-.826-1.104-2.423-1.25-3.37-.308L5.082 4.48c-.47.467-.785 1.073-.747 1.744.098 1.719.876 5.416 5.214 9.73 4.6 4.574 8.917 4.756 10.683 4.591.558-.052 1.044-.336 1.435-.725l1.539-1.53c1.039-1.033.746-2.804-.583-3.526l-2.07-1.125c-.873-.475-1.936-.336-2.618.343z" fill="#4DACB8"/></svg>