<svg width="22" height="22" fill="none" xmlns="http://www.w3.org/2000/svg"><g clip-path="url(#clip0_156_151)"><path d="M5.197 18.674L8.92 14.16l1.702 2.172-3.282 4.173c-1.256 1.597-3.582-.086-2.143-1.831zM9.544 8.395c.355-1.157.192-2.145-1.14-3.613L5.149.867c-.462-.543-1.55.254-1.096.91l2.604 3.207c.492.598-.423 1.39-.931.774L3.033 2.442c-.501-.575-1.538.184-1.013.842.759.913 1.933 2.404 2.692 3.317.527.535-.274 1.329-.793.66L1.246 3.968c-.392-.426-1.033-.16-1.203.337-.183.532.267.92.573 1.314l2.983 3.853c.925 1.072 1.96 1.708 3.163 1.348.185-.055.41-.168.652-.317l8.014 10.345c.431.557 1.264.616 1.804.166l.124-.102c.608-.506.707-1.432.186-2.03l-8.486-9.75c.247-.276.428-.537.488-.736zm2.269 2.256l1.32-1.6c-1.698-4.208 4.592-9.815 7.64-7.237 3.705 3.135-1.8 10.69-5.67 8.823l-1.563 1.985-1.727-1.971z" fill="#4DACB8"/></g><defs><clipPath id="clip0_156_151"><path fill="#fff" d="M0 0h22v22H0z"/></clipPath></defs></svg>