<svg width="22" height="22" fill="none" xmlns="http://www.w3.org/2000/svg"><path d="M11 18.565a5.42 5.42 0 01-1.708-.28V22h3.416v-3.714a5.438 5.438 0 01-1.708.28zm7.038-10.038a3.85 3.85 0 00.244-1.342 3.862 3.862 0 00-2.94-3.747A4.465 4.465 0 0011 0a4.465 4.465 0 00-4.343 3.438 3.862 3.862 0 00-2.939 3.747c0 .473.089.923.244 1.342a4.454 4.454 0 00-1.826 3.597 4.465 4.465 0 006.225 4.105 4.067 4.067 0 001.955.91v-2.147l-3.095-3.096a.682.682 0 11.966-.966l2.13 2.13v-2.346L8.194 8.591a.508.508 0 01.717-.718l1.406 1.406V6.704a.683.683 0 011.367 0v2.575l1.405-1.406a.507.507 0 11.717.718l-2.122 2.123v2.345l2.13-2.129a.682.682 0 11.965.966l-3.095 3.096v2.147a4.07 4.07 0 001.955-.91 4.466 4.466 0 006.226-4.106 4.45 4.45 0 00-1.828-3.596z" fill="#4DACB8"/></svg>