<svg width="22" height="22" fill="none" xmlns="http://www.w3.org/2000/svg"><path d="M2.919 7.783a13.292 13.292 0 0116.162 0c.402.308.98.274 1.314-.106l.607-.687c.334-.38.3-.962-.1-1.274a16.041 16.041 0 00-19.805 0C.7 6.028.664 6.61 1 6.99l.606.687c.335.38.912.414 1.314.106z" fill="#4DACB8"/><path d="M6.197 11.095a8.708 8.708 0 019.68 0c.42.282.996.234 1.32-.155l.586-.705c.325-.389.274-.97-.14-1.262a11.459 11.459 0 00-13.212 0c-.414.292-.465.873-.14 1.262l.586.705c.324.389.9.437 1.32.155z" fill="#4DACB8"/><path d="M11.005 14.21c-.549 0-1.089.109-1.59.318-.467.195-1.037.11-1.33-.303l-.531-.748c-.293-.412-.199-.991.25-1.227a6.874 6.874 0 016.402 0c.448.236.543.815.25 1.227l-.531.748c-.293.412-.864.498-1.331.303-.5-.21-1.04-.319-1.59-.319zM11 19.708a1.833 1.833 0 100-3.666 1.833 1.833 0 000 3.666z" fill="#4DACB8"/></svg>